# xmcd
#
# Track frame offsets: 
#        150
#        12992
#        29719
#        44172
#        62495
#        80086
#        110977
#        128336
#        145058
#        162618
#        170199
#        183662
#
# Disc length: 2608 seconds
#
# Revision: 0
# Processed by: cddbd v1.5.1PL2 Copyright (c) Steve Scherf et al.
# Submitted via: ExactAudioCopy v0.95b4
#
DISCID=b60a2e0c
DTITLE=Heidi Clare - I Declare
DYEAR=2006
DGENRE=Bluegrass
TTITLE0=Cumberland Gap
TTITLE1=Shout Lula
TTITLE2=Oil in My Vessel
TTITLE3=Elk River Blues/Shippinsport
TTITLE4=Chelle's Dance
TTITLE5=Old Corn Liquor
TTITLE6=Brickyard Joe
TTITLE7=Farewell to Thurber
TTITLE8=Rye Straw
TTITLE9=Shout Josephine
TTITLE10=Shortnin' Bread
TTITLE11=Three Forks of Cheat
EXTD=Fiddler/Dancer with The Reeltime Travelers
EXTT0=
EXTT1=
EXTT2=
EXTT3=
EXTT4=
EXTT5=
EXTT6=
EXTT7=
EXTT8=
EXTT9=
EXTT10=
EXTT11=
PLAYORDER=
